<svg id="facebook_fb_face_book" data-name="facebook fb face book" xmlns="http://www.w3.org/2000/svg" width="48.187" height="48.187" viewBox="0 0 48.187 48.187">
  <defs>
    <style>
      .cls-1 {
        fill: #fff;
      }
    </style>
  </defs>
  <path id="路径_20" data-name="路径 20" class="cls-1" d="M41.92,3H12.267A9.267,9.267,0,0,0,3,12.267V41.92a9.267,9.267,0,0,0,9.267,9.267H27.094a1.853,1.853,0,0,0,1.853-1.853V34.507a1.853,1.853,0,0,0-1.853-1.853H25.24V28.947h1.853a1.853,1.853,0,0,0,1.853-1.853V20.607a4.633,4.633,0,0,1,4.633-4.633h4.633V19.68H36.36a3.707,3.707,0,0,0-3.707,3.707v3.707a1.853,1.853,0,0,0,1.853,1.853h3.188l-.927,3.707H34.507a1.853,1.853,0,0,0-1.853,1.853V41.92a1.853,1.853,0,1,0,3.707,0V36.36h1.853a1.853,1.853,0,0,0,1.853-1.409l1.853-7.413a1.841,1.841,0,0,0-1.853-2.3H36.36V23.387h3.707a1.853,1.853,0,0,0,1.853-1.853V14.12a1.853,1.853,0,0,0-1.853-1.853H33.58a8.359,8.359,0,0,0-8.34,8.34V25.24H23.387a1.853,1.853,0,0,0-1.853,1.853v7.413a1.853,1.853,0,0,0,1.853,1.853H25.24V47.48H12.267a5.56,5.56,0,0,1-5.56-5.56V12.267a5.56,5.56,0,0,1,5.56-5.56H41.92a5.56,5.56,0,0,1,5.56,5.56V41.92a5.56,5.56,0,0,1-5.56,5.56H34.507a1.853,1.853,0,1,0,0,3.707H41.92a9.267,9.267,0,0,0,9.267-9.267V12.267A9.267,9.267,0,0,0,41.92,3Z" transform="translate(-3 -3)"/>
</svg>
