<svg xmlns="http://www.w3.org/2000/svg" width="43.613" height="34.707" viewBox="0 0 43.613 34.707">
  <defs>
    <style>
      .cls-1 {
        fill: #fff;
      }
    </style>
  </defs>
  <path id="iconfinder_home_1608930" class="cls-1" d="M127.277,272.991v12.985a1.755,1.755,0,0,1-1.731,1.731H115.158V277.319h-6.925v10.388H97.845a1.755,1.755,0,0,1-1.731-1.731V272.991a.371.371,0,0,1,.014-.081.369.369,0,0,0,.014-.081L111.7,260.006l15.554,12.822A.377.377,0,0,1,127.277,272.991Zm6.032-1.867-1.677,2a.92.92,0,0,1-.568.3h-.081a.832.832,0,0,1-.568-.189L111.7,257.626,92.976,273.234a1,1,0,0,1-.649.189.92.92,0,0,1-.568-.3l-1.677-2a.877.877,0,0,1-.189-.636.785.785,0,0,1,.3-.582l19.45-16.2a3.356,3.356,0,0,1,4.112,0l6.6,5.518v-5.275a.833.833,0,0,1,.866-.866h5.194a.833.833,0,0,1,.866.866v11.037l5.924,4.923a.785.785,0,0,1,.3.582A.877.877,0,0,1,133.309,271.124Z" transform="translate(-89.889 -253)"/>
</svg>
