<svg id="iconfinder_38-instagram_1161953" xmlns="http://www.w3.org/2000/svg" width="49.6" height="49.6" viewBox="0 0 49.6 49.6">
  <defs>
    <style>
      .cls-1 {
        fill: #fff;
      }
    </style>
  </defs>
  <path id="路径_18" data-name="路径 18" class="cls-1" d="M28.2,16.7A12.8,12.8,0,1,0,41,29.5,12.825,12.825,0,0,0,28.2,16.7Zm0,21a8.2,8.2,0,1,1,8.2-8.2A8.237,8.237,0,0,1,28.2,37.7Z" transform="translate(-3.4 -4.8)"/>
  <circle id="椭圆_4" data-name="椭圆 4" class="cls-1" cx="2.9" cy="2.9" r="2.9" transform="translate(35.2 8.7)"/>
  <path id="路径_19" data-name="路径 19" class="cls-1" d="M49,8.9A14.242,14.242,0,0,0,38.5,4.8H17.9C9.2,4.8,3.4,10.6,3.4,19.3V39.8A14.389,14.389,0,0,0,7.6,50.5,14.594,14.594,0,0,0,18,54.4H38.4a14.766,14.766,0,0,0,10.5-3.9A14.316,14.316,0,0,0,53,39.9V19.3A14.335,14.335,0,0,0,49,8.9Zm-.4,31a9.771,9.771,0,0,1-2.9,7.3,10.337,10.337,0,0,1-7.3,2.6H18a10.337,10.337,0,0,1-7.3-2.6A10.052,10.052,0,0,1,8,39.8V19.3A9.969,9.969,0,0,1,10.7,12,10.169,10.169,0,0,1,18,9.4H38.6a9.969,9.969,0,0,1,7.3,2.7,10.319,10.319,0,0,1,2.7,7.2V39.9Z" transform="translate(-3.4 -4.8)"/>
</svg>
