<svg id="youtube_youtuber_video_play" data-name="youtube youtuber video play" xmlns="http://www.w3.org/2000/svg" width="67.241" height="47.657" viewBox="0 0 67.241 47.657">
  <defs>
    <style>
      .cls-1 {
        fill: #fff;
      }
    </style>
  </defs>
  <path id="路径_21" data-name="路径 21" class="cls-1" d="M68.3,20.045A13.46,13.46,0,0,0,55.782,6.609,408.562,408.562,0,0,0,14.86,6.562C8.213,6.562,2.3,12.973,2.3,20.045A102.988,102.988,0,0,0,2.3,40.6,12.54,12.54,0,0,0,14.742,53.164h0Q25,53.73,35.3,53.73t20.437-.542A12.588,12.588,0,0,0,68.3,40.789a74.653,74.653,0,0,0,0-20.744ZM63.584,40.388a1.155,1.155,0,0,0,0,.283,7.92,7.92,0,0,1-7.991,7.873,391.3,391.3,0,0,1-40.733,0,7.92,7.92,0,0,1-7.85-8.109,99,99,0,0,1,0-19.966,1.061,1.061,0,0,0,0-.259,8.91,8.91,0,0,1,7.967-8.934c6.742-.306,13.53-.448,20.319-.448s13.578.141,20.319.448h.118c4.031,0,7.85,4.337,7.85,8.934a1.791,1.791,0,0,0,0,.354,70.977,70.977,0,0,1,0,19.777Z" transform="translate(-1.782 -6.072)"/>
  <path id="路径_22" data-name="路径 22" class="cls-1" d="M32.5,20.657,15.672,11.982a2.362,2.362,0,1,0-2.169,4.2l12.8,6.577-9.429,4.879V22.755a2.357,2.357,0,0,0-4.714,0v8.769a2.365,2.365,0,0,0,3.442,2.1l16.831-8.769a2.4,2.4,0,0,0,.071-4.2Z" transform="translate(12.304 1.59)"/>
</svg>
