<svg id="iconfinder_ic_shopping_cart_48px_3669231" xmlns="http://www.w3.org/2000/svg" width="33.964" height="33.964" viewBox="0 0 33.964 33.964">
  <defs>
    <style>
      .cls-1 {
        fill: #fff;
      }

      .cls-2 {
        fill: none;
      }
    </style>
  </defs>
  <path id="路径_23" data-name="路径 23" class="cls-1" d="M10.491,26.642a2.83,2.83,0,1,0,2.83,2.83A2.817,2.817,0,0,0,10.491,26.642ZM2,4V6.83H4.83L9.918,17.564l-1.91,3.467A2.877,2.877,0,0,0,7.661,22.4a2.83,2.83,0,0,0,2.83,2.83H27.473V22.4H11.092a.35.35,0,0,1-.354-.354.336.336,0,0,1,.042-.17l1.267-2.307H22.59a2.839,2.839,0,0,0,2.477-1.458l5.059-9.184a1.368,1.368,0,0,0,.177-.679A1.415,1.415,0,0,0,28.888,6.83H7.965L6.62,4H2ZM24.642,26.642a2.83,2.83,0,1,0,2.83,2.83A2.817,2.817,0,0,0,24.642,26.642Z" transform="translate(-0.585 -1.17)"/>
  <path id="路径_24" data-name="路径 24" class="cls-2" d="M0,0H33.964V33.964H0Z"/>
</svg>
