<svg xmlns="http://www.w3.org/2000/svg" width="35.48" height="35.466" viewBox="0 0 35.48 35.466">
  <path id="iconfinder_Search_2362208" d="M138.067,137.156a12.509,12.509,0,0,1-1.905,7.046c-.471.731-.321,1.109.24,1.661,3.388,3.338,6.739,6.712,10.1,10.077.947.947.972,1.414.093,2.441a7.437,7.437,0,0,1-1.037,1,1.272,1.272,0,0,1-1.941-.155c-3.414-3.469-6.881-6.886-10.3-10.351-.52-.527-.864-.671-1.572-.246a13.113,13.113,0,0,1-19.987-11.022,13.168,13.168,0,0,1,26.064-2.818A10.356,10.356,0,0,1,138.067,137.156Zm-21.9.3a8.858,8.858,0,0,0,8.779,8.814,8.957,8.957,0,0,0,8.811-8.813,8.8,8.8,0,0,0-17.59,0Z" transform="translate(-111.755 -124.299)" fill="#fff"/>
</svg>
