<svg xmlns="http://www.w3.org/2000/svg" width="27.293" height="22.393" viewBox="0 0 27.293 22.393">
  <g id="iconfinder_User_Interface-20_2044268" opacity="0.73" style="isolation: isolate">
    <line id="直线_1" data-name="直线 1" y2="7.987" transform="translate(21.807 5.056)" fill="none" stroke="#fff" stroke-linecap="round" stroke-linejoin="round" stroke-miterlimit="10" stroke-width="3"/>
    <line id="直线_2" data-name="直线 2" x1="7.972" transform="translate(17.821 9.042)" fill="none" stroke="#fff" stroke-linecap="round" stroke-linejoin="round" stroke-miterlimit="10" stroke-width="3"/>
    <g id="椭圆_1" data-name="椭圆 1" transform="translate(4.089)" fill="none" stroke="#fff" stroke-linecap="round" stroke-linejoin="round" stroke-miterlimit="10" stroke-width="3">
      <circle cx="5.056" cy="5.056" r="5.056" stroke="none"/>
      <circle cx="5.056" cy="5.056" r="3.556" fill="none"/>
    </g>
    <g id="路径_2" data-name="路径 2" transform="translate(-193.6 -256.052)" fill="none" stroke-linecap="round" stroke-linejoin="round" stroke-miterlimit="10">
      <path d="M211.89,278.445a9.145,9.145,0,1,0-18.29,0Z" stroke="none"/>
      <path d="M 208.1132659912109 275.4449157714844 C 207.8401031494141 274.9568786621094 207.4979705810547 274.5036926269531 207.092041015625 274.0977478027344 C 205.9327545166016 272.9384765625 204.388916015625 272.3000183105469 202.7449035644531 272.3000183105469 C 201.1008911132813 272.3000183105469 199.5570373535156 272.9384765625 198.3977508544922 274.0977478027344 C 197.9918060302734 274.5036926269531 197.6496734619141 274.9568786621094 197.3765106201172 275.4449157714844 L 208.1132659912109 275.4449157714844 M 211.8897705078125 278.4449157714844 L 193.6000061035156 278.4449157714844 C 193.6000061035156 273.3888244628906 197.6888427734375 269.3000183105469 202.7449035644531 269.3000183105469 C 207.8009643554688 269.3000183105469 211.8897705078125 273.3888244628906 211.8897705078125 278.4449157714844 Z" stroke="none" fill="#fff"/>
    </g>
  </g>
</svg>
